# xmcd
#
# Track frame offsets:
# 150
# 17632
# 37325
# 59070
# 80402
# 95075
# 120785
# 137227
#
# Disc length: 2196 seconds
#
# Revision: 0
# Processed by: cddbd v1.5.1PL0 Copyright (c) Steve Scherf et al.
# Submitted via: Audion 3.0.2 (http://www.panic.com/audion/)
#
DISCID=6c089208
DTITLE=MILVA - DIE SIEBEN TODSUNDEN
DYEAR=1900
DGENRE=
TTITLE0=PROLOG
TTITLE1=FAULHEIT
TTITLE2=TOLZ
TTITLE3=ZORN
TTITLE4=VOLLEREI
TTITLE5=UNZUCHT
TTITLE6=HABSUCHT
TTITLE7=NEID UND EPILOG
EXTD=
EXTT0=
EXTT1=
EXTT2=
EXTT3=
EXTT4=
EXTT5=
EXTT6=
EXTT7=
PLAYORDER=
